<svg xmlns="http://www.w3.org/2000/svg" xmlns:xlink="http://www.w3.org/1999/xlink" width="500" zoomAndPan="magnify" viewBox="0 0 375 374.999991" height="500" preserveAspectRatio="xMidYMid meet" version="1.0"><defs><g/><clipPath id="c1ad75c62c"><path d="M 14.34375 14.34375 L 365.617188 14.34375 L 365.617188 365.617188 L 14.34375 365.617188 Z M 14.34375 14.34375 " clip-rule="nonzero"/></clipPath><clipPath id="e8db67a0e5"><path d="M 189.980469 14.34375 C 92.976562 14.34375 14.34375 92.976562 14.34375 189.980469 C 14.34375 286.984375 92.976562 365.617188 189.980469 365.617188 C 286.984375 365.617188 365.617188 286.984375 365.617188 189.980469 C 365.617188 92.976562 286.984375 14.34375 189.980469 14.34375 Z M 189.980469 14.34375 " clip-rule="nonzero"/></clipPath><clipPath id="db9b5c8c8e"><path d="M 0.34375 0.34375 L 351.617188 0.34375 L 351.617188 351.617188 L 0.34375 351.617188 Z M 0.34375 0.34375 " clip-rule="nonzero"/></clipPath><clipPath id="e8d0bd616f"><path d="M 175.980469 0.34375 C 78.976562 0.34375 0.34375 78.976562 0.34375 175.980469 C 0.34375 272.984375 78.976562 351.617188 175.980469 351.617188 C 272.984375 351.617188 351.617188 272.984375 351.617188 175.980469 C 351.617188 78.976562 272.984375 0.34375 175.980469 0.34375 Z M 175.980469 0.34375 " clip-rule="nonzero"/></clipPath><clipPath id="4b8430e093"><rect x="0" width="352" y="0" height="352"/></clipPath><clipPath id="afd2bfee35"><path d="M 14.34375 14.34375 L 365.34375 14.34375 L 365.34375 365.34375 L 14.34375 365.34375 Z M 14.34375 14.34375 " clip-rule="nonzero"/></clipPath><clipPath id="463c822aef"><path d="M 189.976562 14.34375 C 92.976562 14.34375 14.34375 92.976562 14.34375 189.976562 C 14.34375 286.976562 92.976562 365.613281 189.976562 365.613281 C 286.976562 365.613281 365.613281 286.976562 365.613281 189.976562 C 365.613281 92.976562 286.976562 14.34375 189.976562 14.34375 Z M 189.976562 14.34375 " clip-rule="nonzero"/></clipPath><clipPath id="6dbd415b10"><path d="M 70.28125 77 L 305 77 L 305 297 L 70.28125 297 Z M 70.28125 77 " clip-rule="nonzero"/></clipPath></defs><g clip-path="url(#c1ad75c62c)"><g clip-path="url(#e8db67a0e5)"><g transform="matrix(1, 0, 0, 1, 14, 14)"><g clip-path="url(#4b8430e093)"><g clip-path="url(#db9b5c8c8e)"><g clip-path="url(#e8d0bd616f)"><path fill="#152d69" d="M 0.34375 0.34375 L 351.617188 0.34375 L 351.617188 351.617188 L 0.34375 351.617188 Z M 0.34375 0.34375 " fill-opacity="1" fill-rule="nonzero"/></g></g></g></g></g></g><g clip-path="url(#afd2bfee35)"><g clip-path="url(#463c822aef)"><path stroke-linecap="butt" transform="matrix(0.75, 0, 0, 0.75, 14.342532, 14.342528)" fill="none" stroke-linejoin="miter" d="M 234.178722 0.00162974 C 104.845381 0.00162974 0.00162374 104.845387 0.00162374 234.178728 C 0.00162374 363.51207 104.845381 468.361035 234.178722 468.361035 C 363.512064 468.361035 468.361029 363.51207 468.361029 234.178728 C 468.361029 104.845387 363.512064 0.00162974 234.178722 0.00162974 Z M 234.178722 0.00162974 " stroke="#f7931e" stroke-width="20" stroke-opacity="1" stroke-miterlimit="4"/></g></g><g clip-path="url(#6dbd415b10)"><path fill="#f7931e" d="M 304.597656 80.4375 C 302.839844 75.894531 298.199219 77.011719 294.382812 77.578125 C 285.539062 79.464844 277.808594 84.648438 269.730469 88.523438 C 258.019531 95.183594 247.359375 104.269531 240.734375 116.152344 C 240.570312 107.410156 225.363281 120.207031 223.074219 122.789062 C 215.023438 130.992188 208.164062 140.324219 202.046875 150.050781 C 202.453125 147.128906 202.523438 143.574219 200.269531 141.355469 C 196.820312 139.082031 192.464844 139.742188 189.015625 141.65625 C 183.539062 144.484375 180.523438 150.449219 178.152344 155.882812 C 175.074219 162.546875 175.359375 170.03125 173.703125 177.070312 C 171.796875 185.789062 169.351562 194.609375 166.988281 203.253906 C 162.480469 218.636719 156.894531 233.664062 151.375 248.734375 C 148.734375 255.832031 146.285156 262.996094 143.539062 270.058594 C 140.808594 275.875 137.464844 281.601562 136.707031 288.003906 C 135.175781 288.253906 133.570312 288.300781 132.210938 287.546875 C 130.449219 286.621094 129.691406 284.144531 127.324219 284.339844 C 124.933594 284.8125 123.285156 286.75 120.96875 287.324219 C 120.621094 287.378906 120.207031 287.433594 119.878906 287.277344 C 119.679688 287.15625 119.574219 287.023438 119.503906 286.800781 C 119.082031 284.738281 120.148438 282.726562 119.5625 280.597656 C 118.21875 275.972656 112.132812 279.929688 109.933594 281.800781 C 106.074219 285.199219 102.90625 289.074219 99.132812 292.210938 C 97.429688 293.582031 95.695312 295.066406 93.4375 295.460938 C 91.316406 295.492188 91.957031 291.222656 92.308594 289.96875 C 94.511719 281.269531 101.566406 274.566406 107.4375 267.054688 C 112.25 261.371094 121.867188 244.851562 106.84375 246.769531 C 101.878906 248.105469 97.742188 251.328125 93.71875 254.082031 C 86.300781 259.246094 80.09375 265.457031 75.839844 272.707031 C 74.378906 275.207031 73.019531 277.695312 71.847656 280.28125 C 71.113281 281.917969 70.195312 283.59375 70.285156 285.472656 C 70.285156 285.609375 70.492188 285.683594 70.382812 285.585938 C 72.0625 281.226562 74.445312 276.914062 76.996094 272.742188 C 80.96875 266.578125 86.394531 261.269531 92.769531 256.675781 C 97.265625 253.734375 101.710938 250.066406 107.238281 248.578125 C 116 247.1875 112.695312 255.671875 110.023438 260.1875 C 107.589844 264.503906 104.382812 268.1875 101.363281 271.863281 C 96.972656 277.335938 92.53125 282.800781 90.824219 289.28125 C 90.222656 291.6875 89.542969 295.625 92.597656 296.914062 C 96.855469 297.429688 101.078125 292.542969 103.921875 289.878906 C 107.335938 286.828125 112.027344 279.21875 117.585938 279.695312 C 117.769531 279.789062 117.964844 279.902344 118.058594 280.085938 C 119.292969 282.523438 117.171875 285.257812 118.234375 287.695312 C 120.335938 290.601562 124.242188 287.550781 126.601562 286.40625 C 127.683594 285.730469 128.289062 286.316406 129.046875 287.042969 C 130.890625 289.128906 134.1875 289.472656 136.683594 288.164062 C 136.667969 288.292969 136.636719 288.421875 136.625 288.550781 C 136.726562 288.394531 136.808594 288.226562 136.90625 288.070312 C 137.015625 288.007812 137.144531 287.992188 137.25 287.921875 C 137.15625 287.941406 137.058594 287.949219 136.96875 287.964844 C 139.523438 283.894531 141.210938 279.292969 143.433594 275.019531 C 147.128906 267.996094 150.335938 260.628906 154.023438 253.582031 C 156.609375 248.476562 159.492188 243.589844 162.480469 238.769531 C 164.273438 236.75 165.671875 234.5 167.738281 232.605469 C 171.023438 229.632812 174.375 226.683594 177.539062 223.570312 C 181.089844 220.671875 184.84375 217.667969 188.613281 215.003906 C 195.710938 210.296875 203.097656 205.90625 209.851562 200.683594 C 214.921875 196.640625 220.316406 192.832031 224.558594 187.886719 C 233.3125 187.890625 240.882812 181.601562 245.820312 174.820312 C 250.820312 167.421875 253.292969 158.648438 256.449219 150.371094 C 259.019531 144.085938 262.195312 138.058594 265.183594 131.96875 C 267.992188 126.457031 270.707031 120.898438 274.316406 115.660156 C 277.738281 110.835938 281.1875 105.804688 285.554688 101.765625 C 289.480469 97.578125 306.496094 85.914062 304.597656 80.4375 Z M 223.039062 185.804688 C 221.957031 185.277344 220.871094 184.609375 220.300781 183.5 C 219.53125 180.957031 219.742188 178.175781 221.042969 175.8125 C 221.800781 174.339844 222.753906 172.964844 224.460938 172.46875 C 225.160156 172.300781 226.078125 172.054688 226.792969 172.328125 C 227.691406 172.839844 228.519531 173.730469 228.855469 174.75 C 229.257812 179.148438 225.476562 182.511719 223.039062 185.804688 Z M 292.703125 93.167969 C 289 96.269531 285.125 99.191406 281.640625 102.539062 C 279.085938 105.28125 276.789062 108.242188 274.507812 111.207031 C 265.390625 123.125 258.769531 136.863281 253.523438 150.871094 C 252.222656 155.15625 250.871094 159.304688 249.253906 163.507812 C 248.148438 166.5 247.128906 169.550781 245.414062 172.300781 C 241.136719 179.421875 234.199219 185.75 225.59375 186.484375 C 227.785156 183.132812 230.527344 179.617188 230.53125 175.4375 C 230.566406 173.722656 229.355469 172.3125 228.085938 171.296875 C 225.324219 169.46875 221.386719 171.546875 220.019531 174.253906 C 217.566406 178.136719 216.945312 184.9375 221.96875 187.007812 C 215.453125 193.277344 208.21875 198.835938 200.863281 204.082031 C 197.1875 206.277344 193.867188 208.988281 190.324219 211.375 C 185.132812 214.796875 180.019531 218.695312 175.269531 222.765625 C 173.429688 224.828125 171.171875 226.679688 169.007812 228.605469 C 171.859375 224.332031 174.75 220.078125 177.640625 215.820312 C 185.359375 205.117188 192.488281 194.109375 199.917969 183.296875 C 206.621094 174.347656 213.488281 165.5625 220.542969 157.007812 C 225.894531 150.417969 232.070312 144.574219 237.679688 138.277344 C 240.777344 134.660156 243.710938 130.949219 247.613281 128.207031 C 247.808594 128.078125 247.996094 127.898438 248.023438 127.632812 C 247.945312 127.410156 247.628906 127.4375 247.457031 127.519531 C 243.300781 130.175781 239.652344 133.542969 236.195312 137.117188 C 228.183594 144.851562 220.34375 152.835938 213.433594 161.773438 C 208.648438 167.871094 203.878906 174.011719 199.125 180.1875 C 194.046875 187.398438 189.054688 194.75 184.042969 202.121094 C 175.109375 214.875 165.832031 227.726562 157.660156 241.222656 C 155.671875 244.601562 153.867188 248.070312 152.121094 251.574219 C 154.078125 246.574219 156.003906 241.523438 157.785156 236.472656 C 162.652344 222.648438 167.769531 208.792969 171.140625 194.480469 C 173.320312 186.207031 175.660156 177.90625 176.695312 169.390625 C 177.496094 160.390625 180.710938 151.203125 187.175781 144.675781 C 190.5 142.003906 195.203125 140.085938 199.242188 142.355469 C 200.792969 143.757812 200.867188 146.082031 200.792969 148.09375 C 200.515625 150.949219 200.035156 153.847656 198.371094 156.25 C 196.609375 159.238281 195.140625 162.203125 193.566406 165.351562 C 192.140625 168.414062 190.042969 171.363281 188.953125 174.554688 C 188.972656 174.929688 189.105469 175.28125 189.445312 175.484375 C 190.347656 176.023438 191.042969 174.929688 191.476562 174.3125 C 192.050781 173.492188 192.605469 172.640625 193.121094 171.78125 C 196.378906 166.523438 199.269531 160.988281 200.953125 155.011719 C 203.09375 151.296875 205.535156 147.761719 207.929688 144.210938 C 213.566406 136.015625 219.9375 128.089844 227.136719 121.195312 C 229.84375 118.808594 242.507812 108.652344 238.816406 118.976562 C 237.910156 121.5 236.605469 123.921875 235.042969 126.101562 C 234.496094 126.875 233.910156 127.617188 233.296875 128.339844 C 233.078125 128.605469 232.898438 128.910156 232.992188 129.269531 C 233.09375 129.640625 233.46875 129.894531 233.851562 129.84375 C 234.429688 129.730469 234.734375 129.136719 235.085938 128.714844 C 237.40625 125.871094 239.179688 122.671875 240.84375 119.421875 C 242.527344 116.308594 244.453125 113.324219 246.675781 110.558594 C 254.160156 101.121094 263.992188 93.570312 274.789062 88.285156 C 282.617188 84.621094 290.410156 79.847656 299.285156 79.304688 C 299.945312 79.320312 300.679688 79.171875 301.285156 79.484375 C 301.886719 79.972656 302.714844 80.613281 302.910156 81.433594 C 302.910156 81.433594 302.921875 81.410156 302.921875 81.410156 C 302.433594 85.640625 295.914062 90.40625 292.703125 93.167969 Z M 292.703125 93.167969 " fill-opacity="1" fill-rule="nonzero"/></g><g fill="#ffffff" fill-opacity="1"><g transform="translate(40.422757, 225.793418)"><g><path d="M 21.875 0.875 C 20.332031 0.820312 18.878906 0.78125 17.515625 0.75 C 16.148438 0.726562 14.800781 0.664062 13.46875 0.5625 C 12.71875 0.457031 11.953125 0.375 11.171875 0.3125 C 10.398438 0.257812 9.640625 0.289062 8.890625 0.40625 C 8.359375 0.457031 7.8125 0.484375 7.25 0.484375 C 6.6875 0.484375 6.113281 0.484375 5.53125 0.484375 C 4.570312 0.484375 4.035156 0 3.921875 -0.96875 C 3.867188 -1.707031 3.800781 -2.453125 3.71875 -3.203125 C 3.644531 -3.953125 3.632812 -4.675781 3.6875 -5.375 C 3.84375 -8.414062 3.921875 -11.40625 3.921875 -14.34375 C 3.921875 -16.96875 3.90625 -19.570312 3.875 -22.15625 C 3.851562 -24.75 3.816406 -27.359375 3.765625 -29.984375 C 3.710938 -31.742188 3.660156 -33.519531 3.609375 -35.3125 C 3.554688 -37.101562 3.503906 -38.878906 3.453125 -40.640625 C 3.390625 -41.390625 3.375 -42.109375 3.40625 -42.796875 C 3.4375 -43.492188 3.476562 -44.191406 3.53125 -44.890625 C 3.632812 -45.898438 3.609375 -46.832031 3.453125 -47.6875 C 3.390625 -48.757812 3.34375 -49.828125 3.3125 -50.890625 C 3.289062 -51.960938 3.304688 -53.035156 3.359375 -54.109375 C 3.421875 -54.429688 3.421875 -54.722656 3.359375 -54.984375 C 3.359375 -55.628906 3.628906 -56.113281 4.171875 -56.4375 C 4.753906 -56.863281 5.363281 -57.128906 6 -57.234375 C 6.644531 -57.335938 7.316406 -57.414062 8.015625 -57.46875 C 8.285156 -57.46875 8.539062 -57.453125 8.78125 -57.421875 C 9.019531 -57.398438 9.242188 -57.390625 9.453125 -57.390625 C 10.046875 -57.335938 10.660156 -57.3125 11.296875 -57.3125 C 11.941406 -57.3125 12.554688 -57.285156 13.140625 -57.234375 C 13.359375 -57.234375 13.570312 -57.242188 13.78125 -57.265625 C 14 -57.296875 14.210938 -57.335938 14.421875 -57.390625 C 14.640625 -57.390625 14.851562 -57.398438 15.0625 -57.421875 C 15.28125 -57.453125 15.492188 -57.492188 15.703125 -57.546875 C 16.566406 -57.597656 17.394531 -57.640625 18.1875 -57.671875 C 18.988281 -57.703125 19.820312 -57.71875 20.6875 -57.71875 C 21.476562 -57.71875 22.289062 -57.71875 23.125 -57.71875 C 23.957031 -57.71875 24.769531 -57.609375 25.5625 -57.390625 C 25.832031 -57.335938 26.097656 -57.296875 26.359375 -57.265625 C 26.628906 -57.242188 26.898438 -57.207031 27.171875 -57.15625 C 28.453125 -56.882812 29.546875 -56.457031 30.453125 -55.875 C 31.046875 -55.5 31.539062 -55.066406 31.9375 -54.578125 C 32.34375 -54.097656 32.734375 -53.59375 33.109375 -53.0625 C 33.691406 -52.363281 34.171875 -51.613281 34.546875 -50.8125 C 34.921875 -50.007812 35.269531 -49.210938 35.59375 -48.421875 C 35.96875 -47.296875 36.257812 -46.15625 36.46875 -45 C 36.6875 -43.851562 36.769531 -42.691406 36.71875 -41.515625 C 36.65625 -40.984375 36.625 -40.476562 36.625 -40 C 36.625 -39.519531 36.597656 -39.039062 36.546875 -38.5625 C 36.492188 -37.695312 36.359375 -36.835938 36.140625 -35.984375 C 35.929688 -35.128906 35.664062 -34.300781 35.34375 -33.5 C 35.03125 -32.863281 34.65625 -32.273438 34.21875 -31.734375 C 33.789062 -31.203125 33.257812 -30.773438 32.625 -30.453125 C 32.519531 -30.398438 32.382812 -30.296875 32.21875 -30.140625 C 32.007812 -29.921875 31.914062 -29.785156 31.9375 -29.734375 C 31.96875 -29.679688 32.085938 -29.550781 32.296875 -29.34375 C 32.460938 -29.226562 32.609375 -29.117188 32.734375 -29.015625 C 32.867188 -28.910156 32.992188 -28.773438 33.109375 -28.609375 C 34.492188 -27.117188 35.507812 -25.4375 36.15625 -23.5625 C 36.632812 -22.125 36.925781 -20.671875 37.03125 -19.203125 C 37.132812 -17.734375 37.132812 -16.25 37.03125 -14.75 C 36.976562 -14.15625 36.925781 -13.550781 36.875 -12.9375 C 36.820312 -12.332031 36.738281 -11.734375 36.625 -11.140625 C 36.3125 -7.398438 34.898438 -4.25 32.390625 -1.6875 C 31.210938 -0.457031 29.738281 0.238281 27.96875 0.40625 C 27.539062 0.457031 27.085938 0.507812 26.609375 0.5625 C 26.128906 0.613281 25.648438 0.664062 25.171875 0.71875 C 24.578125 0.769531 23.988281 0.804688 23.40625 0.828125 C 22.820312 0.859375 22.3125 0.875 21.875 0.875 Z M 16.265625 -19 L 16.265625 -18.921875 C 16.328125 -17.523438 16.382812 -16.117188 16.4375 -14.703125 C 16.488281 -13.285156 16.539062 -11.882812 16.59375 -10.5 C 16.59375 -10.175781 16.753906 -9.988281 17.078125 -9.9375 C 17.390625 -9.9375 17.691406 -9.9375 17.984375 -9.9375 C 18.285156 -9.9375 18.570312 -9.960938 18.84375 -10.015625 C 19.90625 -10.066406 20.929688 -10.210938 21.921875 -10.453125 C 22.910156 -10.703125 23.859375 -11.117188 24.765625 -11.703125 C 26.160156 -12.554688 26.882812 -13.648438 26.9375 -14.984375 C 27.039062 -16.210938 26.984375 -17.398438 26.765625 -18.546875 C 26.554688 -19.703125 26.128906 -20.8125 25.484375 -21.875 C 25.273438 -22.25 25.019531 -22.582031 24.71875 -22.875 C 24.425781 -23.175781 24.066406 -23.40625 23.640625 -23.5625 C 22.679688 -23.832031 21.800781 -23.96875 21 -23.96875 C 20.300781 -23.96875 19.59375 -23.953125 18.875 -23.921875 C 18.15625 -23.898438 17.445312 -23.890625 16.75 -23.890625 C 16.425781 -23.835938 16.238281 -23.78125 16.1875 -23.71875 C 16.132812 -23.664062 16.109375 -23.484375 16.109375 -23.171875 C 16.160156 -22.472656 16.1875 -21.773438 16.1875 -21.078125 C 16.1875 -20.390625 16.210938 -19.695312 16.265625 -19 Z M 15.625 -40.15625 L 15.625 -39.84375 C 15.675781 -39.144531 15.703125 -38.421875 15.703125 -37.671875 C 15.703125 -36.921875 15.703125 -36.171875 15.703125 -35.421875 C 15.765625 -35.054688 15.832031 -34.816406 15.90625 -34.703125 C 15.988281 -34.597656 16.21875 -34.570312 16.59375 -34.625 C 17.019531 -34.726562 17.429688 -34.796875 17.828125 -34.828125 C 18.234375 -34.859375 18.625 -34.898438 19 -34.953125 C 19.582031 -35.003906 20.191406 -35.039062 20.828125 -35.0625 C 21.472656 -35.09375 22.09375 -35.132812 22.6875 -35.1875 C 23.21875 -35.238281 23.679688 -35.410156 24.078125 -35.703125 C 24.484375 -36.003906 24.847656 -36.34375 25.171875 -36.71875 C 25.378906 -36.925781 25.484375 -37.269531 25.484375 -37.75 C 25.484375 -39.78125 25.003906 -41.707031 24.046875 -43.53125 C 23.722656 -44.113281 23.21875 -44.59375 22.53125 -44.96875 C 21.988281 -45.238281 21.460938 -45.410156 20.953125 -45.484375 C 20.453125 -45.566406 19.929688 -45.582031 19.390625 -45.53125 C 18.804688 -45.476562 18.234375 -45.421875 17.671875 -45.359375 C 17.109375 -45.304688 16.535156 -45.253906 15.953125 -45.203125 C 15.679688 -45.148438 15.546875 -44.960938 15.546875 -44.640625 C 15.546875 -43.898438 15.546875 -43.15625 15.546875 -42.40625 C 15.546875 -41.65625 15.570312 -40.90625 15.625 -40.15625 Z M 15.625 -40.15625 "/></g></g></g><g fill="#ffffff" fill-opacity="1"><g transform="translate(80.741331, 225.793418)"><g><path d="M 19.5625 -43.28125 C 19.820312 -43.707031 20.070312 -44.109375 20.3125 -44.484375 C 20.5625 -44.859375 20.789062 -45.234375 21 -45.609375 C 21.53125 -46.566406 22.035156 -47.523438 22.515625 -48.484375 C 23.003906 -49.453125 23.515625 -50.414062 24.046875 -51.375 C 24.316406 -51.914062 24.597656 -52.453125 24.890625 -52.984375 C 25.179688 -53.515625 25.488281 -54.050781 25.8125 -54.59375 C 26.082031 -54.957031 26.335938 -55.300781 26.578125 -55.625 C 26.816406 -55.945312 27.039062 -56.269531 27.25 -56.59375 C 27.351562 -56.75 27.484375 -56.835938 27.640625 -56.859375 C 27.804688 -56.890625 27.972656 -56.90625 28.140625 -56.90625 C 28.722656 -56.90625 29.320312 -56.890625 29.9375 -56.859375 C 30.550781 -56.835938 31.125 -56.851562 31.65625 -56.90625 C 32.625 -56.90625 33.585938 -56.90625 34.546875 -56.90625 C 35.503906 -56.90625 36.441406 -56.929688 37.359375 -56.984375 C 37.566406 -56.984375 37.765625 -56.96875 37.953125 -56.9375 C 38.140625 -56.914062 38.257812 -56.828125 38.3125 -56.671875 C 38.414062 -56.453125 38.441406 -56.265625 38.390625 -56.109375 C 38.335938 -55.953125 38.257812 -55.789062 38.15625 -55.625 C 37.5625 -54.613281 36.984375 -53.554688 36.421875 -52.453125 C 35.867188 -51.359375 35.378906 -50.253906 34.953125 -49.140625 C 34.523438 -48.117188 34.082031 -47.085938 33.625 -46.046875 C 33.164062 -45.003906 32.722656 -43.953125 32.296875 -42.890625 C 31.765625 -41.390625 31.140625 -39.929688 30.421875 -38.515625 C 29.703125 -37.097656 29.019531 -35.640625 28.375 -34.140625 C 28.101562 -33.503906 27.804688 -32.851562 27.484375 -32.1875 C 27.171875 -31.519531 26.878906 -30.835938 26.609375 -30.140625 C 26.398438 -29.710938 26.296875 -29.234375 26.296875 -28.703125 C 26.242188 -26.609375 26.1875 -24.519531 26.125 -22.4375 C 26.070312 -20.351562 26.019531 -18.296875 25.96875 -16.265625 C 25.96875 -15.460938 25.976562 -14.660156 26 -13.859375 C 26.03125 -13.066406 26.046875 -12.269531 26.046875 -11.46875 L 26.046875 -4.40625 C 25.992188 -3.925781 25.96875 -3.429688 25.96875 -2.921875 C 25.96875 -2.421875 25.941406 -1.925781 25.890625 -1.4375 C 25.835938 -0.90625 25.546875 -0.535156 25.015625 -0.328125 C 24.046875 0.046875 23.050781 0.234375 22.03125 0.234375 C 21.019531 0.234375 20.007812 0.234375 19 0.234375 L 16.359375 0.234375 C 15.765625 0.234375 15.441406 -0.0546875 15.390625 -0.640625 C 15.390625 -0.796875 15.375 -0.953125 15.34375 -1.109375 C 15.320312 -1.273438 15.3125 -1.441406 15.3125 -1.609375 C 15.257812 -3.472656 15.21875 -5.335938 15.1875 -7.203125 C 15.164062 -9.078125 15.125 -10.925781 15.0625 -12.75 C 15.0625 -13.601562 15.078125 -14.457031 15.109375 -15.3125 C 15.140625 -16.164062 15.15625 -17.019531 15.15625 -17.875 C 15.15625 -18.519531 15.164062 -19.175781 15.1875 -19.84375 C 15.21875 -20.507812 15.234375 -21.160156 15.234375 -21.796875 C 15.234375 -23.347656 15.242188 -24.910156 15.265625 -26.484375 C 15.296875 -28.066406 15.3125 -29.632812 15.3125 -31.1875 C 15.3125 -31.394531 15.257812 -31.609375 15.15625 -31.828125 C 14.78125 -32.566406 14.40625 -33.285156 14.03125 -33.984375 C 13.65625 -34.679688 13.253906 -35.378906 12.828125 -36.078125 C 12.347656 -36.929688 11.863281 -37.753906 11.375 -38.546875 C 10.894531 -39.347656 10.441406 -40.179688 10.015625 -41.046875 C 9.484375 -41.953125 8.960938 -42.882812 8.453125 -43.84375 C 7.941406 -44.800781 7.421875 -45.738281 6.890625 -46.65625 C 6.734375 -46.914062 6.597656 -47.207031 6.484375 -47.53125 C 6.378906 -47.851562 6.25 -48.148438 6.09375 -48.421875 C 5.875 -48.734375 5.6875 -49.0625 5.53125 -49.40625 C 5.375 -49.757812 5.1875 -50.070312 4.96875 -50.34375 C 4.332031 -51.25 3.769531 -52.195312 3.28125 -53.1875 C 2.800781 -54.175781 2.296875 -55.148438 1.765625 -56.109375 C 1.492188 -56.753906 1.679688 -57.15625 2.328125 -57.3125 C 3.390625 -57.519531 4.425781 -57.703125 5.4375 -57.859375 C 6.457031 -58.023438 7.476562 -58.03125 8.5 -57.875 C 9.1875 -57.769531 9.863281 -57.703125 10.53125 -57.671875 C 11.207031 -57.640625 11.890625 -57.597656 12.578125 -57.546875 C 12.898438 -57.546875 13.144531 -57.414062 13.3125 -57.15625 C 13.738281 -56.507812 14.125 -55.878906 14.46875 -55.265625 C 14.8125 -54.648438 15.117188 -53.96875 15.390625 -53.21875 C 15.867188 -51.9375 16.363281 -50.65625 16.875 -49.375 C 17.382812 -48.09375 17.90625 -46.8125 18.4375 -45.53125 C 18.59375 -45.15625 18.765625 -44.789062 18.953125 -44.4375 C 19.140625 -44.09375 19.34375 -43.707031 19.5625 -43.28125 Z M 19.5625 -43.28125 "/></g></g></g><g fill="#ffffff" fill-opacity="1"><g transform="translate(120.81943, 225.793418)"><g><path d="M 21.5625 -25.734375 C 21.5625 -22.796875 21.546875 -19.882812 21.515625 -17 C 21.492188 -14.113281 21.457031 -11.195312 21.40625 -8.25 C 21.40625 -6.96875 21.375 -5.6875 21.3125 -4.40625 C 21.257812 -3.125 21.207031 -1.84375 21.15625 -0.5625 C 21.15625 -0.0820312 20.863281 0.265625 20.28125 0.484375 C 19.257812 0.691406 18.253906 0.820312 17.265625 0.875 C 16.285156 0.9375 15.257812 0.882812 14.1875 0.71875 C 13.96875 0.664062 13.738281 0.640625 13.5 0.640625 C 13.257812 0.640625 13.035156 0.613281 12.828125 0.5625 C 11.804688 0.40625 11.296875 -0.15625 11.296875 -1.125 L 11.296875 -9.296875 C 11.296875 -11.484375 11.269531 -13.660156 11.21875 -15.828125 C 11.164062 -17.992188 11.164062 -20.171875 11.21875 -22.359375 C 11.21875 -24.335938 11.257812 -26.328125 11.34375 -28.328125 C 11.425781 -30.335938 11.519531 -32.332031 11.625 -34.3125 C 11.726562 -35.695312 11.78125 -37.082031 11.78125 -38.46875 C 11.78125 -39.863281 11.78125 -41.226562 11.78125 -42.5625 C 11.78125 -43.144531 11.78125 -43.691406 11.78125 -44.203125 C 11.78125 -44.710938 11.753906 -45.234375 11.703125 -45.765625 C 11.703125 -46.035156 11.6875 -46.179688 11.65625 -46.203125 C 11.632812 -46.234375 11.488281 -46.25 11.21875 -46.25 C 9.882812 -46.25 8.546875 -46.25 7.203125 -46.25 C 5.867188 -46.25 4.507812 -46.195312 3.125 -46.09375 L 2.40625 -46.09375 C 2.082031 -46.09375 1.867188 -46.304688 1.765625 -46.734375 C 1.710938 -47.054688 1.671875 -47.375 1.640625 -47.6875 C 1.617188 -48.007812 1.609375 -48.359375 1.609375 -48.734375 C 1.609375 -49.910156 1.632812 -51.070312 1.6875 -52.21875 C 1.738281 -53.363281 1.816406 -54.523438 1.921875 -55.703125 C 1.972656 -56.347656 2.320312 -56.695312 2.96875 -56.75 C 3.925781 -56.800781 4.898438 -56.835938 5.890625 -56.859375 C 6.878906 -56.890625 7.851562 -56.878906 8.8125 -56.828125 C 11.8125 -56.617188 14.804688 -56.5 17.796875 -56.46875 C 20.785156 -56.445312 23.773438 -56.460938 26.765625 -56.515625 C 27.515625 -56.515625 28.25 -56.523438 28.96875 -56.546875 C 29.695312 -56.578125 30.40625 -56.59375 31.09375 -56.59375 C 31.519531 -56.59375 31.800781 -56.523438 31.9375 -56.390625 C 32.070312 -56.253906 32.140625 -55.972656 32.140625 -55.546875 C 32.191406 -54.472656 32.175781 -53.390625 32.09375 -52.296875 C 32.019531 -51.203125 31.957031 -50.09375 31.90625 -48.96875 L 31.90625 -47.375 C 31.851562 -46.726562 31.53125 -46.378906 30.9375 -46.328125 L 30.453125 -46.328125 C 29.335938 -46.429688 28.21875 -46.457031 27.09375 -46.40625 C 25.96875 -46.351562 24.875 -46.300781 23.8125 -46.25 L 22.53125 -46.25 C 22.257812 -46.25 22.125 -46.113281 22.125 -45.84375 L 22.125 -45.203125 C 22.125 -44.023438 22.132812 -42.835938 22.15625 -41.640625 C 22.1875 -40.441406 22.175781 -39.253906 22.125 -38.078125 C 22.070312 -36.097656 22.015625 -34.144531 21.953125 -32.21875 C 21.898438 -30.300781 21.820312 -28.378906 21.71875 -26.453125 C 21.664062 -26.296875 21.640625 -26.054688 21.640625 -25.734375 Z M 21.5625 -25.734375 "/></g></g></g><g fill="#ffffff" fill-opacity="1"><g transform="translate(154.645348, 225.793418)"><g><path d="M 14.265625 -12.34375 C 14.210938 -11.007812 14.160156 -9.671875 14.109375 -8.328125 C 14.054688 -6.992188 14.03125 -5.660156 14.03125 -4.328125 C 13.976562 -3.628906 13.953125 -2.957031 13.953125 -2.3125 C 13.953125 -1.675781 13.921875 -1.015625 13.859375 -0.328125 L 13.859375 0.234375 C 13.753906 0.660156 13.539062 0.875 13.21875 0.875 C 12.3125 0.988281 11.378906 1.097656 10.421875 1.203125 C 9.460938 1.304688 8.523438 1.382812 7.609375 1.4375 C 7.023438 1.488281 6.410156 1.460938 5.765625 1.359375 C 5.128906 1.253906 4.515625 1.175781 3.921875 1.125 C 3.492188 1.125 3.28125 0.828125 3.28125 0.234375 C 3.175781 -0.398438 3.175781 -1.09375 3.28125 -1.84375 C 3.332031 -3.5 3.382812 -5.15625 3.4375 -6.8125 C 3.5 -8.46875 3.53125 -10.125 3.53125 -11.78125 C 3.53125 -13.65625 3.515625 -15.539062 3.484375 -17.4375 C 3.460938 -19.332031 3.421875 -21.210938 3.359375 -23.078125 C 3.359375 -24.304688 3.332031 -25.535156 3.28125 -26.765625 C 3.226562 -27.992188 3.203125 -29.222656 3.203125 -30.453125 C 3.203125 -32.648438 3.210938 -34.867188 3.234375 -37.109375 C 3.265625 -39.359375 3.28125 -41.601562 3.28125 -43.84375 C 3.332031 -45.175781 3.375 -46.507812 3.40625 -47.84375 C 3.4375 -49.1875 3.476562 -50.523438 3.53125 -51.859375 C 3.53125 -52.609375 3.554688 -53.359375 3.609375 -54.109375 C 3.660156 -54.859375 3.710938 -55.601562 3.765625 -56.34375 C 3.765625 -56.769531 3.976562 -57.039062 4.40625 -57.15625 C 4.78125 -57.257812 5.128906 -57.335938 5.453125 -57.390625 C 5.773438 -57.441406 6.09375 -57.46875 6.40625 -57.46875 C 7.15625 -57.519531 7.890625 -57.546875 8.609375 -57.546875 C 9.335938 -57.546875 10.046875 -57.546875 10.734375 -57.546875 C 11.222656 -57.546875 11.691406 -57.519531 12.140625 -57.46875 C 12.597656 -57.414062 13.039062 -57.363281 13.46875 -57.3125 C 14.164062 -57.257812 14.515625 -56.910156 14.515625 -56.265625 C 14.566406 -55.679688 14.59375 -55.082031 14.59375 -54.46875 C 14.59375 -53.851562 14.59375 -53.25 14.59375 -52.65625 C 14.539062 -51.320312 14.523438 -49.988281 14.546875 -48.65625 C 14.578125 -47.320312 14.535156 -45.984375 14.421875 -44.640625 C 14.367188 -43.359375 14.34375 -42.0625 14.34375 -40.75 C 14.34375 -39.445312 14.34375 -38.15625 14.34375 -36.875 L 14.34375 -36.546875 C 14.289062 -36.335938 14.425781 -36.234375 14.75 -36.234375 C 15.070312 -36.234375 15.40625 -36.242188 15.75 -36.265625 C 16.09375 -36.296875 16.425781 -36.3125 16.75 -36.3125 C 17.445312 -36.3125 18.128906 -36.3125 18.796875 -36.3125 C 19.460938 -36.3125 20.144531 -36.335938 20.84375 -36.390625 C 21.75 -36.492188 22.671875 -36.585938 23.609375 -36.671875 C 24.546875 -36.753906 25.492188 -36.820312 26.453125 -36.875 C 26.722656 -36.925781 26.882812 -36.960938 26.9375 -36.984375 C 26.988281 -37.015625 27.015625 -37.191406 27.015625 -37.515625 C 26.960938 -39.441406 26.921875 -41.363281 26.890625 -43.28125 C 26.867188 -45.207031 26.882812 -47.101562 26.9375 -48.96875 C 26.9375 -51.164062 27.015625 -53.332031 27.171875 -55.46875 L 27.171875 -56.1875 C 27.273438 -56.832031 27.648438 -57.207031 28.296875 -57.3125 C 28.878906 -57.414062 29.488281 -57.535156 30.125 -57.671875 C 30.769531 -57.804688 31.390625 -57.898438 31.984375 -57.953125 C 32.734375 -58.109375 33.507812 -58.203125 34.3125 -58.234375 C 35.113281 -58.265625 35.914062 -58.25 36.71875 -58.1875 C 37.300781 -58.1875 37.59375 -57.867188 37.59375 -57.234375 C 37.59375 -56.910156 37.59375 -56.585938 37.59375 -56.265625 C 37.59375 -55.941406 37.566406 -55.625 37.515625 -55.3125 C 37.460938 -53.8125 37.460938 -52.3125 37.515625 -50.8125 C 37.566406 -49.320312 37.617188 -47.828125 37.671875 -46.328125 C 37.773438 -44.191406 37.835938 -42.054688 37.859375 -39.921875 C 37.890625 -37.785156 37.9375 -35.644531 38 -33.5 C 38.050781 -31.3125 38.085938 -29.148438 38.109375 -27.015625 C 38.140625 -24.878906 38.179688 -22.710938 38.234375 -20.515625 C 38.285156 -17.898438 38.335938 -15.304688 38.390625 -12.734375 C 38.441406 -10.171875 38.5 -7.609375 38.5625 -5.046875 C 38.5625 -4.359375 38.5625 -3.640625 38.5625 -2.890625 C 38.5625 -2.140625 38.585938 -1.390625 38.640625 -0.640625 C 38.640625 -0.429688 38.613281 -0.269531 38.5625 -0.15625 C 38.5625 0.375 38.316406 0.640625 37.828125 0.640625 C 37.085938 0.691406 36.328125 0.742188 35.546875 0.796875 C 34.773438 0.847656 34.015625 0.847656 33.265625 0.796875 C 32.785156 0.691406 32.300781 0.640625 31.8125 0.640625 C 31.332031 0.640625 30.828125 0.613281 30.296875 0.5625 C 30.023438 0.5625 29.742188 0.546875 29.453125 0.515625 C 29.160156 0.492188 28.851562 0.457031 28.53125 0.40625 C 27.945312 0.351562 27.65625 0.03125 27.65625 -0.5625 C 27.601562 -2.113281 27.535156 -3.6875 27.453125 -5.28125 C 27.367188 -6.882812 27.300781 -8.460938 27.25 -10.015625 C 27.195312 -11.722656 27.171875 -13.429688 27.171875 -15.140625 C 27.171875 -16.859375 27.144531 -18.570312 27.09375 -20.28125 L 27.09375 -24.921875 C 27.09375 -25.242188 27.066406 -25.429688 27.015625 -25.484375 C 26.960938 -25.535156 26.800781 -25.5625 26.53125 -25.5625 C 25.519531 -25.5625 24.503906 -25.5625 23.484375 -25.5625 C 22.472656 -25.5625 21.457031 -25.535156 20.4375 -25.484375 C 19.476562 -25.484375 18.53125 -25.457031 17.59375 -25.40625 C 16.65625 -25.351562 15.734375 -25.300781 14.828125 -25.25 C 14.554688 -25.195312 14.378906 -25.144531 14.296875 -25.09375 C 14.222656 -25.039062 14.1875 -24.878906 14.1875 -24.609375 C 14.1875 -23.273438 14.1875 -21.9375 14.1875 -20.59375 C 14.1875 -19.257812 14.210938 -17.925781 14.265625 -16.59375 Z M 14.265625 -12.34375 "/></g></g></g><g fill="#ffffff" fill-opacity="1"><g transform="translate(196.486891, 225.793418)"><g><path d="M 1.609375 -1.6875 C 1.609375 -2.164062 1.671875 -2.617188 1.796875 -3.046875 C 1.929688 -3.472656 2.109375 -3.875 2.328125 -4.25 C 2.585938 -4.78125 2.796875 -5.328125 2.953125 -5.890625 C 3.117188 -6.453125 3.285156 -7 3.453125 -7.53125 C 3.984375 -9.132812 4.4375 -10.75 4.8125 -12.375 C 5.1875 -14.007812 5.5625 -15.628906 5.9375 -17.234375 C 6.363281 -19.046875 6.800781 -20.847656 7.25 -22.640625 C 7.707031 -24.429688 8.175781 -26.207031 8.65625 -27.96875 C 8.875 -28.71875 9.0625 -29.441406 9.21875 -30.140625 C 9.375 -30.835938 9.535156 -31.53125 9.703125 -32.21875 C 9.910156 -32.914062 10.09375 -33.609375 10.25 -34.296875 C 10.414062 -34.992188 10.609375 -35.691406 10.828125 -36.390625 C 11.085938 -37.296875 11.363281 -38.203125 11.65625 -39.109375 C 11.957031 -40.023438 12.238281 -40.910156 12.5 -41.765625 C 12.769531 -42.671875 13.023438 -43.550781 13.265625 -44.40625 C 13.503906 -45.257812 13.734375 -46.113281 13.953125 -46.96875 L 14.1875 -48.421875 C 14.34375 -49.003906 14.488281 -49.578125 14.625 -50.140625 C 14.757812 -50.703125 14.90625 -51.25 15.0625 -51.78125 C 15.332031 -52.53125 15.597656 -53.265625 15.859375 -53.984375 C 16.128906 -54.703125 16.398438 -55.4375 16.671875 -56.1875 C 16.828125 -56.71875 17.253906 -57.066406 17.953125 -57.234375 C 18.484375 -57.335938 19.003906 -57.390625 19.515625 -57.390625 C 20.023438 -57.390625 20.546875 -57.390625 21.078125 -57.390625 C 21.984375 -57.441406 22.90625 -57.46875 23.84375 -57.46875 C 24.78125 -57.46875 25.703125 -57.492188 26.609375 -57.546875 C 27.140625 -57.546875 27.59375 -57.332031 27.96875 -56.90625 C 28.457031 -56.375 28.78125 -55.734375 28.9375 -54.984375 C 29.144531 -54.347656 29.367188 -53.722656 29.609375 -53.109375 C 29.859375 -52.492188 30.007812 -51.835938 30.0625 -51.140625 C 30.164062 -50.492188 30.296875 -49.863281 30.453125 -49.25 C 30.617188 -48.632812 30.78125 -48.035156 30.9375 -47.453125 C 31.101562 -46.804688 31.25 -46.175781 31.375 -45.5625 C 31.507812 -44.945312 31.660156 -44.347656 31.828125 -43.765625 C 31.828125 -43.546875 31.828125 -43.4375 31.828125 -43.4375 C 31.828125 -42.90625 31.890625 -42.398438 32.015625 -41.921875 C 32.148438 -41.441406 32.300781 -40.960938 32.46875 -40.484375 C 32.675781 -39.628906 32.898438 -38.800781 33.140625 -38 C 33.378906 -37.195312 33.609375 -36.367188 33.828125 -35.515625 C 33.929688 -35.242188 34.023438 -34.960938 34.109375 -34.671875 C 34.191406 -34.378906 34.285156 -34.070312 34.390625 -33.75 C 34.765625 -32.351562 35.148438 -30.945312 35.546875 -29.53125 C 35.953125 -28.113281 36.34375 -26.6875 36.71875 -25.25 C 36.976562 -24.289062 37.238281 -23.34375 37.5 -22.40625 C 37.769531 -21.46875 38.015625 -20.519531 38.234375 -19.5625 C 38.503906 -18.332031 38.785156 -17.085938 39.078125 -15.828125 C 39.367188 -14.578125 39.675781 -13.335938 40 -12.109375 C 40.207031 -11.410156 40.414062 -10.695312 40.625 -9.96875 C 40.84375 -9.25 41.0625 -8.546875 41.28125 -7.859375 C 41.382812 -7.429688 41.488281 -6.988281 41.59375 -6.53125 C 41.707031 -6.070312 41.816406 -5.628906 41.921875 -5.203125 C 42.023438 -5.046875 42.085938 -4.875 42.109375 -4.6875 C 42.140625 -4.5 42.1875 -4.328125 42.25 -4.171875 C 42.351562 -3.691406 42.46875 -3.207031 42.59375 -2.71875 C 42.726562 -2.238281 42.828125 -1.734375 42.890625 -1.203125 C 42.992188 -0.828125 42.910156 -0.492188 42.640625 -0.203125 C 42.378906 0.0859375 42.03125 0.234375 41.59375 0.234375 C 40.738281 0.296875 39.867188 0.351562 38.984375 0.40625 C 38.109375 0.457031 37.242188 0.535156 36.390625 0.640625 C 36.285156 0.640625 36.164062 0.648438 36.03125 0.671875 C 35.894531 0.703125 35.773438 0.691406 35.671875 0.640625 C 34.972656 0.640625 34.289062 0.675781 33.625 0.75 C 32.957031 0.832031 32.300781 0.929688 31.65625 1.046875 C 31.175781 1.097656 30.84375 1.082031 30.65625 1 C 30.46875 0.914062 30.296875 0.632812 30.140625 0.15625 C 29.921875 -0.425781 29.71875 -1.035156 29.53125 -1.671875 C 29.34375 -2.316406 29.171875 -2.9375 29.015625 -3.53125 C 28.910156 -3.957031 28.816406 -4.359375 28.734375 -4.734375 C 28.648438 -5.109375 28.554688 -5.476562 28.453125 -5.84375 C 28.398438 -6.164062 28.210938 -6.328125 27.890625 -6.328125 C 27.515625 -6.328125 27.140625 -6.3125 26.765625 -6.28125 C 26.398438 -6.257812 26.03125 -6.25 25.65625 -6.25 C 24.632812 -6.300781 23.585938 -6.328125 22.515625 -6.328125 C 21.453125 -6.328125 20.382812 -6.351562 19.3125 -6.40625 C 18.9375 -6.40625 18.5625 -6.421875 18.1875 -6.453125 C 17.820312 -6.484375 17.425781 -6.5 17 -6.5 C 16.726562 -6.550781 16.566406 -6.546875 16.515625 -6.484375 C 16.460938 -6.429688 16.378906 -6.273438 16.265625 -6.015625 C 16.054688 -5.160156 15.800781 -4.332031 15.5 -3.53125 C 15.207031 -2.726562 14.929688 -1.925781 14.671875 -1.125 C 14.503906 -0.75 14.289062 -0.375 14.03125 0 C 13.757812 0.425781 13.359375 0.640625 12.828125 0.640625 C 11.972656 0.585938 11.085938 0.546875 10.171875 0.515625 C 9.265625 0.492188 8.359375 0.484375 7.453125 0.484375 C 7.078125 0.429688 6.6875 0.414062 6.28125 0.4375 C 5.882812 0.46875 5.472656 0.457031 5.046875 0.40625 C 4.671875 0.40625 4.320312 0.40625 4 0.40625 C 3.6875 0.40625 3.34375 0.378906 2.96875 0.328125 C 2.375 0.328125 2 0.03125 1.84375 -0.5625 C 1.789062 -0.71875 1.75 -0.890625 1.71875 -1.078125 C 1.695312 -1.265625 1.660156 -1.46875 1.609375 -1.6875 Z M 23.078125 -32.625 L 22.921875 -32.625 C 22.921875 -32.570312 22.867188 -32.4375 22.765625 -32.21875 C 22.710938 -31.957031 22.644531 -31.664062 22.5625 -31.34375 C 22.476562 -31.019531 22.410156 -30.695312 22.359375 -30.375 C 22.148438 -29.789062 21.960938 -29.175781 21.796875 -28.53125 C 21.640625 -27.894531 21.507812 -27.28125 21.40625 -26.6875 C 21.289062 -26.101562 21.164062 -25.503906 21.03125 -24.890625 C 20.90625 -24.273438 20.707031 -23.671875 20.4375 -23.078125 C 20.332031 -22.867188 20.222656 -22.628906 20.109375 -22.359375 C 20.003906 -22.097656 19.898438 -21.832031 19.796875 -21.5625 C 19.742188 -21.507812 19.71875 -21.441406 19.71875 -21.359375 C 19.71875 -21.273438 19.691406 -21.179688 19.640625 -21.078125 C 20.703125 -21.023438 21.726562 -20.984375 22.71875 -20.953125 C 23.707031 -20.929688 24.710938 -20.894531 25.734375 -20.84375 C 25.679688 -21.800781 25.46875 -22.816406 25.09375 -23.890625 C 24.550781 -25.328125 24.148438 -26.820312 23.890625 -28.375 C 23.722656 -29.125 23.570312 -29.84375 23.4375 -30.53125 C 23.3125 -31.226562 23.191406 -31.925781 23.078125 -32.625 Z M 23.078125 -32.625 "/></g></g></g><g fill="#ffffff" fill-opacity="1"><g transform="translate(241.05374, 225.793418)"><g><path d="M 30.21875 -25.25 C 30.164062 -25.832031 30.140625 -26.390625 30.140625 -26.921875 C 30.140625 -27.460938 30.113281 -28 30.0625 -28.53125 C 30.007812 -29.875 29.953125 -31.195312 29.890625 -32.5 C 29.835938 -33.8125 29.785156 -35.109375 29.734375 -36.390625 C 29.679688 -37.773438 29.640625 -39.125 29.609375 -40.4375 C 29.585938 -41.75 29.523438 -43.070312 29.421875 -44.40625 C 29.304688 -46.0625 29.234375 -47.691406 29.203125 -49.296875 C 29.179688 -50.898438 29.171875 -52.503906 29.171875 -54.109375 C 29.171875 -54.429688 29.15625 -54.75 29.125 -55.0625 C 29.101562 -55.382812 29.09375 -55.707031 29.09375 -56.03125 C 29.039062 -56.726562 29.363281 -57.15625 30.0625 -57.3125 C 30.4375 -57.414062 30.796875 -57.46875 31.140625 -57.46875 C 31.484375 -57.46875 31.84375 -57.46875 32.21875 -57.46875 C 32.8125 -57.46875 33.414062 -57.476562 34.03125 -57.5 C 34.644531 -57.53125 35.242188 -57.570312 35.828125 -57.625 C 36.359375 -57.6875 36.863281 -57.742188 37.34375 -57.796875 C 37.832031 -57.847656 38.34375 -57.898438 38.875 -57.953125 L 39.359375 -57.953125 C 39.785156 -57.953125 40 -57.738281 40 -57.3125 C 40.050781 -56.132812 40.078125 -54.972656 40.078125 -53.828125 C 40.078125 -52.679688 40.101562 -51.519531 40.15625 -50.34375 L 40.15625 -44.8125 C 40.207031 -43.789062 40.234375 -42.769531 40.234375 -41.75 C 40.234375 -40.738281 40.257812 -39.726562 40.3125 -38.71875 C 40.425781 -37.007812 40.507812 -35.285156 40.5625 -33.546875 C 40.613281 -31.804688 40.664062 -30.082031 40.71875 -28.375 C 40.71875 -26.445312 40.796875 -24.46875 40.953125 -22.4375 C 41.117188 -20.300781 41.210938 -18.140625 41.234375 -15.953125 C 41.265625 -13.765625 41.304688 -11.570312 41.359375 -9.375 C 41.410156 -8.625 41.445312 -7.847656 41.46875 -7.046875 C 41.5 -6.242188 41.539062 -5.472656 41.59375 -4.734375 L 41.59375 -0.875 C 41.59375 -0.238281 41.222656 0.160156 40.484375 0.328125 C 40.160156 0.378906 39.820312 0.441406 39.46875 0.515625 C 39.125 0.597656 38.789062 0.664062 38.46875 0.71875 C 37.9375 0.769531 37.414062 0.796875 36.90625 0.796875 C 36.40625 0.796875 35.910156 0.820312 35.421875 0.875 L 33.828125 0.875 C 33.179688 0.9375 32.703125 0.695312 32.390625 0.15625 C 32.222656 -0.101562 32.046875 -0.378906 31.859375 -0.671875 C 31.671875 -0.972656 31.5 -1.253906 31.34375 -1.515625 C 30.695312 -2.484375 30.078125 -3.460938 29.484375 -4.453125 C 28.898438 -5.441406 28.289062 -6.390625 27.65625 -7.296875 C 27.125 -8.046875 26.628906 -8.832031 26.171875 -9.65625 C 25.710938 -10.488281 25.242188 -11.304688 24.765625 -12.109375 C 24.285156 -12.847656 23.789062 -13.59375 23.28125 -14.34375 C 22.78125 -15.09375 22.285156 -15.867188 21.796875 -16.671875 C 20.679688 -18.429688 19.546875 -20.191406 18.390625 -21.953125 C 17.242188 -23.722656 16.082031 -25.460938 14.90625 -27.171875 C 14.851562 -27.273438 14.785156 -27.367188 14.703125 -27.453125 C 14.628906 -27.535156 14.535156 -27.65625 14.421875 -27.8125 L 14.421875 -16.515625 C 14.484375 -15.335938 14.515625 -14.117188 14.515625 -12.859375 C 14.515625 -11.609375 14.539062 -10.367188 14.59375 -9.140625 C 14.644531 -7.960938 14.671875 -6.8125 14.671875 -5.6875 C 14.671875 -4.570312 14.695312 -3.453125 14.75 -2.328125 C 14.75 -1.847656 14.613281 -1.335938 14.34375 -0.796875 C 14.082031 -0.316406 13.601562 -0.0234375 12.90625 0.078125 C 12.425781 0.128906 11.941406 0.179688 11.453125 0.234375 C 10.972656 0.296875 10.492188 0.351562 10.015625 0.40625 C 8.523438 0.457031 7.03125 0.457031 5.53125 0.40625 C 4.675781 0.40625 4.195312 -0.078125 4.09375 -1.046875 C 4.09375 -1.847656 4.078125 -2.660156 4.046875 -3.484375 C 4.023438 -4.316406 4.015625 -5.132812 4.015625 -5.9375 C 3.953125 -7.644531 3.878906 -9.351562 3.796875 -11.0625 C 3.722656 -12.769531 3.660156 -14.453125 3.609375 -16.109375 C 3.554688 -17.660156 3.53125 -19.179688 3.53125 -20.671875 C 3.53125 -22.171875 3.53125 -23.671875 3.53125 -25.171875 C 3.53125 -26.878906 3.515625 -28.570312 3.484375 -30.25 C 3.460938 -31.9375 3.453125 -33.609375 3.453125 -35.265625 C 3.390625 -38.097656 3.359375 -40.929688 3.359375 -43.765625 C 3.359375 -46.597656 3.359375 -49.40625 3.359375 -52.1875 C 3.304688 -52.769531 3.265625 -53.351562 3.234375 -53.9375 C 3.210938 -54.53125 3.203125 -55.09375 3.203125 -55.625 C 3.203125 -55.894531 3.226562 -56.148438 3.28125 -56.390625 C 3.332031 -56.628906 3.390625 -56.882812 3.453125 -57.15625 C 3.554688 -57.46875 3.796875 -57.625 4.171875 -57.625 L 5.375 -57.625 C 5.90625 -57.6875 6.4375 -57.71875 6.96875 -57.71875 C 7.507812 -57.71875 8.046875 -57.742188 8.578125 -57.796875 C 9.160156 -57.796875 9.757812 -57.78125 10.375 -57.75 C 10.988281 -57.726562 11.59375 -57.769531 12.1875 -57.875 C 12.769531 -57.976562 13.144531 -57.765625 13.3125 -57.234375 C 13.570312 -56.429688 13.898438 -55.679688 14.296875 -54.984375 C 14.703125 -54.285156 15.09375 -53.566406 15.46875 -52.828125 C 15.738281 -52.234375 16.03125 -51.640625 16.34375 -51.046875 C 16.664062 -50.460938 16.960938 -49.878906 17.234375 -49.296875 C 17.710938 -48.441406 18.175781 -47.554688 18.625 -46.640625 C 19.082031 -45.734375 19.523438 -44.828125 19.953125 -43.921875 C 20.328125 -43.234375 20.675781 -42.539062 21 -41.84375 C 21.320312 -41.144531 21.671875 -40.445312 22.046875 -39.75 C 22.097656 -39.644531 22.148438 -39.539062 22.203125 -39.4375 C 22.253906 -39.332031 22.304688 -39.222656 22.359375 -39.109375 C 23.054688 -37.515625 23.816406 -35.953125 24.640625 -34.421875 C 25.472656 -32.898438 26.316406 -31.363281 27.171875 -29.8125 C 27.597656 -29.070312 28.050781 -28.328125 28.53125 -27.578125 C 29.007812 -26.828125 29.492188 -26.078125 29.984375 -25.328125 C 29.984375 -25.328125 30.035156 -25.273438 30.140625 -25.171875 Z M 30.21875 -25.25 "/></g></g></g><g fill="#ffffff" fill-opacity="1"><g transform="translate(285.861064, 225.793418)"><g><path d="M 3.453125 -19.234375 C 3.234375 -23.941406 3.148438 -28.617188 3.203125 -33.265625 C 3.253906 -37.910156 3.253906 -42.585938 3.203125 -47.296875 C 3.203125 -47.609375 3.226562 -47.925781 3.28125 -48.25 C 3.332031 -48.570312 3.390625 -48.894531 3.453125 -49.21875 C 3.453125 -49.476562 3.476562 -49.742188 3.53125 -50.015625 C 3.582031 -50.285156 3.609375 -50.523438 3.609375 -50.734375 C 3.660156 -51.703125 3.695312 -52.664062 3.71875 -53.625 C 3.75 -54.582031 3.789062 -55.519531 3.84375 -56.4375 C 3.84375 -57.070312 4.164062 -57.414062 4.8125 -57.46875 C 4.96875 -57.519531 5.207031 -57.546875 5.53125 -57.546875 C 6.382812 -57.546875 7.222656 -57.554688 8.046875 -57.578125 C 8.878906 -57.609375 9.722656 -57.625 10.578125 -57.625 C 10.898438 -57.6875 11.207031 -57.726562 11.5 -57.75 C 11.789062 -57.78125 12.070312 -57.796875 12.34375 -57.796875 C 12.820312 -57.847656 13.285156 -57.898438 13.734375 -57.953125 C 14.191406 -58.003906 14.664062 -58.03125 15.15625 -58.03125 C 16.113281 -57.976562 17.070312 -57.953125 18.03125 -57.953125 C 19 -57.953125 19.960938 -57.898438 20.921875 -57.796875 C 21.722656 -57.742188 22.507812 -57.675781 23.28125 -57.59375 C 24.0625 -57.507812 24.851562 -57.414062 25.65625 -57.3125 C 25.757812 -57.3125 25.863281 -57.296875 25.96875 -57.265625 C 26.070312 -57.242188 26.179688 -57.207031 26.296875 -57.15625 C 26.671875 -57.101562 27.015625 -57.046875 27.328125 -56.984375 C 27.648438 -56.929688 28 -56.851562 28.375 -56.75 C 28.476562 -56.695312 28.582031 -56.671875 28.6875 -56.671875 C 28.800781 -56.671875 28.882812 -56.644531 28.9375 -56.59375 C 29.84375 -56.21875 30.722656 -55.867188 31.578125 -55.546875 C 32.429688 -55.222656 33.257812 -54.769531 34.0625 -54.1875 C 35.40625 -53.28125 36.472656 -52.1875 37.265625 -50.90625 C 37.535156 -50.414062 37.816406 -49.929688 38.109375 -49.453125 C 38.410156 -48.972656 38.664062 -48.492188 38.875 -48.015625 C 39.144531 -47.535156 39.359375 -47.050781 39.515625 -46.5625 C 39.671875 -46.082031 39.859375 -45.601562 40.078125 -45.125 C 40.179688 -44.863281 40.273438 -44.597656 40.359375 -44.328125 C 40.441406 -44.054688 40.507812 -43.789062 40.5625 -43.53125 C 40.613281 -43.3125 40.648438 -43.117188 40.671875 -42.953125 C 40.703125 -42.796875 40.742188 -42.640625 40.796875 -42.484375 C 40.898438 -41.785156 41.003906 -41.101562 41.109375 -40.4375 C 41.222656 -39.769531 41.304688 -39.085938 41.359375 -38.390625 C 41.410156 -38.179688 41.4375 -37.96875 41.4375 -37.75 C 41.4375 -37.539062 41.4375 -37.328125 41.4375 -37.109375 C 41.488281 -36.421875 41.539062 -35.726562 41.59375 -35.03125 C 41.65625 -34.332031 41.6875 -33.632812 41.6875 -32.9375 L 41.6875 -27.5 C 41.625 -27.175781 41.59375 -26.863281 41.59375 -26.5625 C 41.59375 -26.269531 41.59375 -25.96875 41.59375 -25.65625 C 41.539062 -25.164062 41.5 -24.664062 41.46875 -24.15625 C 41.445312 -23.65625 41.382812 -23.164062 41.28125 -22.6875 L 41.28125 -22.53125 C 41.28125 -21.613281 41.132812 -20.710938 40.84375 -19.828125 C 40.550781 -18.953125 40.296875 -18.0625 40.078125 -17.15625 C 40.023438 -16.988281 39.984375 -16.8125 39.953125 -16.625 C 39.929688 -16.445312 39.894531 -16.273438 39.84375 -16.109375 C 39.519531 -14.128906 38.769531 -12.15625 37.59375 -10.1875 C 37.113281 -9.320312 36.523438 -8.382812 35.828125 -7.375 C 35.554688 -6.894531 35.207031 -6.476562 34.78125 -6.125 C 34.351562 -5.78125 33.925781 -5.394531 33.5 -4.96875 C 32.757812 -4.269531 31.921875 -3.65625 30.984375 -3.125 C 30.046875 -2.59375 29.097656 -2.113281 28.140625 -1.6875 C 27.222656 -1.3125 26.285156 -1.003906 25.328125 -0.765625 C 24.367188 -0.523438 23.351562 -0.40625 22.28125 -0.40625 C 21.582031 -0.40625 20.882812 -0.375 20.1875 -0.3125 C 19.5 -0.257812 18.804688 -0.207031 18.109375 -0.15625 C 17.203125 -0.101562 16.28125 -0.078125 15.34375 -0.078125 C 14.414062 -0.078125 13.492188 -0.0507812 12.578125 0 C 11.410156 0 10.222656 -0.0078125 9.015625 -0.03125 C 7.816406 -0.0625 6.601562 -0.101562 5.375 -0.15625 C 5 -0.15625 4.742188 -0.222656 4.609375 -0.359375 C 4.472656 -0.492188 4.378906 -0.75 4.328125 -1.125 C 4.273438 -2.40625 4.207031 -3.6875 4.125 -4.96875 C 4.050781 -6.25 3.957031 -7.554688 3.84375 -8.890625 C 3.789062 -10.066406 3.722656 -11.253906 3.640625 -12.453125 C 3.566406 -13.660156 3.503906 -14.851562 3.453125 -16.03125 C 3.390625 -16.613281 3.375 -17.160156 3.40625 -17.671875 C 3.4375 -18.179688 3.453125 -18.703125 3.453125 -19.234375 Z M 16.359375 -24.453125 L 16.4375 -24.453125 L 16.4375 -23.171875 C 16.4375 -21.515625 16.445312 -19.882812 16.46875 -18.28125 C 16.5 -16.675781 16.539062 -15.046875 16.59375 -13.390625 L 16.59375 -13.140625 C 16.59375 -12.878906 16.695312 -12.75 16.90625 -12.75 C 17.226562 -12.800781 17.535156 -12.835938 17.828125 -12.859375 C 18.128906 -12.890625 18.4375 -12.929688 18.75 -12.984375 C 19.125 -12.984375 19.472656 -13.050781 19.796875 -13.1875 C 20.117188 -13.320312 20.414062 -13.492188 20.6875 -13.703125 C 20.894531 -13.804688 21.117188 -13.925781 21.359375 -14.0625 C 21.597656 -14.195312 21.828125 -14.316406 22.046875 -14.421875 C 22.472656 -14.640625 22.882812 -14.828125 23.28125 -14.984375 C 23.6875 -15.148438 24.101562 -15.335938 24.53125 -15.546875 C 24.789062 -15.648438 25.054688 -15.820312 25.328125 -16.0625 C 25.597656 -16.3125 25.835938 -16.539062 26.046875 -16.75 C 27.273438 -18.300781 28.078125 -19.984375 28.453125 -21.796875 C 28.929688 -23.566406 29.253906 -25.382812 29.421875 -27.25 C 29.523438 -28.101562 29.5625 -28.941406 29.53125 -29.765625 C 29.507812 -30.597656 29.523438 -31.441406 29.578125 -32.296875 C 29.628906 -33.898438 29.390625 -35.453125 28.859375 -36.953125 C 28.691406 -37.535156 28.5 -38.082031 28.28125 -38.59375 C 28.070312 -39.101562 27.835938 -39.597656 27.578125 -40.078125 C 27.203125 -40.828125 26.707031 -41.492188 26.09375 -42.078125 C 25.476562 -42.671875 24.875 -43.234375 24.28125 -43.765625 C 24.070312 -44.035156 23.832031 -44.195312 23.5625 -44.25 C 23.132812 -44.40625 22.71875 -44.550781 22.3125 -44.6875 C 21.914062 -44.820312 21.503906 -44.941406 21.078125 -45.046875 C 19.953125 -45.367188 18.722656 -45.476562 17.390625 -45.375 C 17.066406 -45.3125 16.90625 -45.097656 16.90625 -44.734375 C 16.851562 -44.359375 16.828125 -43.984375 16.828125 -43.609375 C 16.828125 -43.234375 16.773438 -42.832031 16.671875 -42.40625 C 16.347656 -39.78125 16.1875 -37.132812 16.1875 -34.46875 C 16.132812 -32.8125 16.148438 -31.15625 16.234375 -29.5 C 16.316406 -27.84375 16.359375 -26.160156 16.359375 -24.453125 Z M 16.359375 -24.453125 "/></g></g></g><g fill="#ffffff" fill-opacity="1"><g transform="translate(329.145409, 225.793418)"><g><path d="M 14.421875 -26.53125 C 14.367188 -25.351562 14.328125 -24.160156 14.296875 -22.953125 C 14.273438 -21.753906 14.238281 -20.566406 14.1875 -19.390625 C 14.132812 -18.753906 14.109375 -18.101562 14.109375 -17.4375 C 14.109375 -16.769531 14.082031 -16.085938 14.03125 -15.390625 C 13.976562 -14.535156 13.953125 -13.664062 13.953125 -12.78125 C 13.953125 -11.90625 13.921875 -11.007812 13.859375 -10.09375 C 13.804688 -8.925781 13.738281 -7.738281 13.65625 -6.53125 C 13.582031 -5.332031 13.519531 -4.117188 13.46875 -2.890625 C 13.414062 -2.515625 13.390625 -2.148438 13.390625 -1.796875 C 13.390625 -1.453125 13.363281 -1.09375 13.3125 -0.71875 C 13.3125 -0.613281 13.320312 -0.519531 13.34375 -0.4375 C 13.375 -0.363281 13.363281 -0.269531 13.3125 -0.15625 C 13.3125 0.375 13.066406 0.640625 12.578125 0.640625 L 4.8125 0.640625 C 4.539062 0.640625 4.328125 0.613281 4.171875 0.5625 C 3.578125 0.289062 3.28125 -0.132812 3.28125 -0.71875 C 3.332031 -1.625 3.34375 -2.53125 3.3125 -3.4375 C 3.289062 -4.351562 3.304688 -5.265625 3.359375 -6.171875 C 3.472656 -8.898438 3.59375 -11.625 3.71875 -14.34375 C 3.851562 -17.070312 3.867188 -19.769531 3.765625 -22.4375 L 3.765625 -34.46875 C 3.765625 -35.21875 3.738281 -35.992188 3.6875 -36.796875 C 3.632812 -37.597656 3.582031 -38.398438 3.53125 -39.203125 C 3.414062 -40.742188 3.34375 -42.316406 3.3125 -43.921875 C 3.289062 -45.523438 3.304688 -47.101562 3.359375 -48.65625 C 3.472656 -49.832031 3.566406 -50.992188 3.640625 -52.140625 C 3.722656 -53.285156 3.789062 -54.421875 3.84375 -55.546875 C 3.894531 -56.296875 4.015625 -56.765625 4.203125 -56.953125 C 4.390625 -57.140625 4.832031 -57.234375 5.53125 -57.234375 C 6.28125 -57.285156 7.023438 -57.296875 7.765625 -57.265625 C 8.515625 -57.242188 9.265625 -57.234375 10.015625 -57.234375 C 10.285156 -57.234375 10.566406 -57.242188 10.859375 -57.265625 C 11.148438 -57.296875 11.457031 -57.3125 11.78125 -57.3125 C 11.945312 -57.3125 12.117188 -57.320312 12.296875 -57.34375 C 12.484375 -57.375 12.6875 -57.390625 12.90625 -57.390625 C 13.539062 -57.390625 13.890625 -57.070312 13.953125 -56.4375 L 13.953125 -46.484375 C 14.003906 -45.953125 14.039062 -45.429688 14.0625 -44.921875 C 14.09375 -44.421875 14.109375 -43.898438 14.109375 -43.359375 C 14.160156 -42.828125 14.195312 -42.320312 14.21875 -41.84375 C 14.25 -41.363281 14.265625 -40.851562 14.265625 -40.3125 C 14.316406 -38.019531 14.34375 -35.722656 14.34375 -33.421875 C 14.34375 -31.128906 14.367188 -28.832031 14.421875 -26.53125 Z M 14.421875 -26.53125 "/></g></g></g></svg>